<svg width="80" height="32" viewBox="0 0 80 32" fill="none" xmlns="http://www.w3.org/2000/svg">
<path d="M6.02344 23.293C4.4375 23.293 3.15234 22.7266 2.16797 21.5938C1.18359 20.4531 0.691406 18.9844 0.691406 17.1875C0.691406 15.4141 1.18359 13.9609 2.16797 12.8281C3.15234 11.6875 4.4375 11.1172 6.02344 11.1172C7.65625 11.1172 8.88672 11.6367 9.71484 12.6758L8.33203 14.668C7.80078 13.9961 7.14453 13.6602 6.36328 13.6602C5.55078 13.6602 4.89844 13.9883 4.40625 14.6445C3.91406 15.3008 3.66797 16.1523 3.66797 17.1992C3.66797 18.2383 3.91016 19.0898 4.39453 19.7539C4.88672 20.4102 5.54297 20.7383 6.36328 20.7383C7.12891 20.7383 7.78516 20.3945 8.33203 19.707L9.71484 21.7227C8.91797 22.7695 7.6875 23.293 6.02344 23.293ZM20.4141 23H17.543V21.8047C17.207 22.2656 16.7578 22.6289 16.1953 22.8945C15.6328 23.1602 15.0508 23.293 14.4492 23.293C13.4727 23.293 12.6289 22.9492 11.918 22.2617C11.2148 21.5664 10.8633 20.6289 10.8633 19.4492C10.8633 18.2461 11.2109 17.3164 11.9062 16.6602C12.6094 16.0039 13.457 15.6758 14.4492 15.6758C15.8555 15.6758 16.8867 16.1484 17.543 17.0938V15.6055C17.543 14.9648 17.3477 14.4648 16.957 14.1055C16.5742 13.7461 16.0391 13.5664 15.3516 13.5664C14.3281 13.5664 13.3789 13.9922 12.5039 14.8438L11.3906 12.8281C12.5391 11.6953 14.043 11.125 15.9023 11.1172C17.2617 11.1172 18.3516 11.4453 19.1719 12.1016C20 12.7578 20.4141 13.7812 20.4141 15.1719V23ZM15.5508 21.3477C16.4961 21.3477 17.1602 20.9961 17.543 20.293V18.6992C17.1445 17.9805 16.4805 17.6211 15.5508 17.6211C15.0039 17.6211 14.5664 17.793 14.2383 18.1367C13.9102 18.4805 13.7461 18.9336 13.7461 19.4961C13.7461 20.0586 13.9102 20.5078 14.2383 20.8438C14.5664 21.1797 15.0039 21.3477 15.5508 21.3477ZM25.8984 23H23.0273V6.99219H25.8984V23ZM33.3281 23.293C31.6797 23.293 30.3594 22.7344 29.3672 21.6172C28.375 20.4922 27.8789 19.0156 27.8789 17.1875C27.8789 15.4609 28.3555 14.0195 29.3086 12.8633C30.2617 11.6992 31.5312 11.1172 33.1172 11.1172C34.6875 11.1172 35.9102 11.6914 36.7852 12.8398C37.668 13.9805 38.1094 15.4727 38.1094 17.3164V18.1484H30.7852C30.8633 18.9609 31.1406 19.6289 31.6172 20.1523C32.1016 20.6758 32.7695 20.9375 33.6211 20.9375C34.6445 20.9375 35.4922 20.5547 36.1641 19.7891L37.5117 21.5586C36.4492 22.7148 35.0547 23.293 33.3281 23.293ZM35.3438 16.1328C35.3281 15.4297 35.1367 14.8125 34.7695 14.2812C34.4023 13.7422 33.8359 13.4727 33.0703 13.4727C32.3203 13.4727 31.7578 13.7422 31.3828 14.2812C31.0156 14.8125 30.8164 15.4297 30.7852 16.1328H35.3438ZM49.4883 23H46.6172V15.3945C46.6172 14.2461 46.1055 13.668 45.082 13.6602C44.2148 13.6602 43.5 14.1406 42.9375 15.1016V23H40.0664V11.4102H42.9375V12.9219C43.2734 12.4297 43.7539 12.0078 44.3789 11.6562C45.0039 11.2969 45.668 11.1172 46.3711 11.1172C48.4492 11.1172 49.4883 12.1836 49.4883 14.3164V23ZM61.6406 23H58.7578V21.5352C58.0234 22.707 57.0391 23.293 55.8047 23.293C54.4922 23.293 53.4414 22.75 52.6523 21.6641C51.8711 20.5703 51.4805 19.0781 51.4805 17.1875C51.4805 15.3438 51.8711 13.8711 52.6523 12.7695C53.4414 11.668 54.4922 11.1172 55.8047 11.1172C57.1016 11.1172 58.0859 11.7109 58.7578 12.8984V6.99219H61.6406V23ZM56.7422 20.7383C57.125 20.7383 57.5078 20.6094 57.8906 20.3516C58.2734 20.0859 58.5625 19.7617 58.7578 19.3789V15.0078C58.5625 14.625 58.2734 14.3047 57.8906 14.0469C57.5078 13.7891 57.125 13.6602 56.7422 13.6602C56.0078 13.6602 55.4414 13.9844 55.043 14.6328C54.6523 15.2812 54.457 16.1367 54.457 17.1992C54.457 18.2539 54.6523 19.1094 55.043 19.7656C55.4414 20.4141 56.0078 20.7383 56.7422 20.7383ZM67.125 23H64.2539V11.4102H67.125V12.9922C67.4609 12.4609 67.9258 12.0156 68.5195 11.6562C69.1133 11.2969 69.707 11.1172 70.3008 11.1172V13.9531C70.043 13.8906 69.8164 13.8594 69.6211 13.8594C69.1602 13.8594 68.6875 13.9961 68.2031 14.2695C67.7266 14.5352 67.3672 14.8711 67.125 15.2773V23Z" fill="#292929"/>
<path d="M76.5806 12.38C78.2043 12.38 79.5206 11.0637 79.5206 9.44C79.5206 7.81629 78.2043 6.5 76.5806 6.5C74.9568 6.5 73.6406 7.81629 73.6406 9.44C73.6406 11.0637 74.9568 12.38 76.5806 12.38Z" fill="#1474FF"/>
</svg>
